<?xml version="1.0" encoding="UTF-8" standalone="no"?><!DOCTYPE svg PUBLIC "-//W3C//DTD SVG 1.1//EN" "http://www.w3.org/Graphics/SVG/1.1/DTD/svg11.dtd"><svg width="100%" height="100%" viewBox="0 0 455 512" version="1.1" xmlns="http://www.w3.org/2000/svg" xmlns:xlink="http://www.w3.org/1999/xlink" xml:space="preserve" xmlns:serif="http://www.serif.com/" style="fill-rule:evenodd;clip-rule:evenodd;stroke-linejoin:round;stroke-miterlimit:2;"><g><path d="M5.46,383.416l0.332,0.584c3.583,6.167 8.5,11.583 13.916,14.708l188.084,108.584c10.833,6.25 28.541,6.25 39.416,-0l188.084,-108.584c5.247,-3.027 10.025,-8.204 13.577,-14.132l0.339,-0.576c3.584,-6.167 5.792,-13.167 5.792,-19.417l0,-217.166c0,-6.25 -2.208,-13.209 -5.792,-19.417l-1.026,0.593l1.026,-0.593c-3.583,-6.167 -8.5,-11.583 -13.916,-14.708l-188.084,-108.584c-10.833,-6.25 -28.583,-6.25 -39.416,0l-188.084,108.584c-10.833,6.25 -19.708,21.625 -19.708,34.125l-0,217.166c-0,6.055 2.072,12.774 5.46,18.833Z" style="fill:#3949ab;"/><path d="M227.5,407.667c-83.625,-0 -151.667,-68.042 -151.667,-151.667c0,-83.625 68.042,-151.667 151.667,-151.667c53.958,0 104.292,29.042 131.333,75.792l-65.625,38c-13.541,-23.417 -38.708,-37.917 -65.708,-37.917c-41.833,0 -75.833,34 -75.833,75.834c-0,41.791 34,75.833 75.833,75.833c27,0 52.167,-14.542 65.708,-37.917l65.625,38c-27.041,46.667 -77.375,75.709 -131.333,75.709Z" style="fill:#fff;"/></g></svg>