<?xml version="1.0" encoding="UTF-8" standalone="no"?><!DOCTYPE svg PUBLIC "-//W3C//DTD SVG 1.1//EN" "http://www.w3.org/Graphics/SVG/1.1/DTD/svg11.dtd"><svg width="100%" height="100%" viewBox="0 0 834 834" version="1.1" xmlns="http://www.w3.org/2000/svg" xmlns:xlink="http://www.w3.org/1999/xlink" xml:space="preserve" xmlns:serif="http://www.serif.com/" style="fill-rule:evenodd;clip-rule:evenodd;stroke-linejoin:round;stroke-miterlimit:2;"><path d="M833.333,416.667l-416.666,416.666l-416.667,-416.666l416.667,-416.667l416.666,416.667Zm-268.137,-105.393c0,-37.581 -13.889,-68.872 -41.667,-93.872c-27.777,-25 -61.601,-37.5 -101.47,-37.5c-48.039,-0 -89.869,7.353 -125.49,22.058l-8.824,87.746c27.124,-17.32 57.026,-25.981 89.706,-25.981c24.51,0 44.771,6.7 60.784,20.098c16.013,13.399 24.02,31.046 24.02,52.942c-0,23.856 -13.807,54.003 -41.422,90.441c-27.614,36.438 -41.421,73.611 -41.421,111.519l74.51,0c-0,-17.646 9.64,-38.398 28.921,-62.255c32.68,-40.522 50.49,-63.235 53.432,-68.137c19.281,-30.719 28.921,-63.072 28.921,-97.059Zm-91.667,383.824l0,-102.941l-113.725,0l-0,102.941l113.725,0Z" style="fill:#fff;fill-rule:nonzero;"/></svg>